If paradise for Teresa is earthly love, for her sister, Anna Maria, supreme happiness must come from faith. Radiologist during the day, the time she has left is committed to evangelizing lost souls ΓÇô a couple living in sin, an alcoholic and other clueless human beings. Through total refusal of carnal pleasures, daily penance, the attempted conversion of "heretics", the obsessive cleaning, prayers and songs, Anna tries to stay away from sex and other sins (Seidl, always provocative, puts in her way the most sinister of orgies). Her faith is only put to the test by her husband who, although unable to walk, won't give up his dream of love, which includes a marriage consummated. But Anna is relentless in her decision to direct her life and love towards Jesus. A feeling that seems infinite but is not just ethereal.


___________________________________



General
Complete name : Paradies.Glaube.AKA.Paradise.Faith.2012.DVDRip.x264.AC3-DEEP.mkv
Format : Matroska
Format version : Version 2
File size : 1.55 GiB
Duration : 1h 48mn
Overall bit rate : 2 038 Kbps
Encoded date : UTC 2013-06-07 04:21:54
Writing application : mkvmerge v4.9.1 ('Ich will') ╤ü╨▒╨╛╤Ç╨║╨░ ╨╛╤é Jul 11 2011 23:53:15
Writing library : libebml v1.2.1 + libmatroska v1.1.1

Video
ID : 1
Format : AVC
Format/Info : Advanced Video Codec
Format profile : High@L3.1
Format settings, CABAC : Yes
Format settings, ReFrames : 9 frames
Codec ID : V_MPEG4/ISO/AVC
Duration : 1h 48mn
Bit rate : 1 549 Kbps
Width : 720 pixels
Height : 556 pixels
Display aspect ratio : 1.85:1
Frame rate mode : Constant
Frame rate : 25.000 fps
Color space : YUV
Chroma subsampling : 4:2:0
Bit depth : 8 bits
Scan type : Progressive
Bits/(Pixel*Frame) : 0.155
Stream size : 1.18 GiB (76%)
Writing library : x264 core 120
Encoding settings : cabac=1 / ref=9 / deblock=1:-3:-3 / analyse=0x3:0x133 / me=umh / subme=9 / psy=1 / psy_rd=1.00:0.00 / mixed_ref=1 / me_range=24 / chroma_me=1 / trellis=2 / 8x8dct=1 / cqm=0 / deadzone=21,11 / fast_pskip=0 / chroma_qp_offset=-2 / threads=6 / sliced_threads=0 / nr=0 / decimate=1 / interlaced=0 / bluray_compat=0 / constrained_intra=0 / bframes=6 / b_pyramid=2 / b_adapt=2 / b_bias=0 / direct=3 / weightb=1 / open_gop=0 / weightp=2 / keyint=250 / keyint_min=25 / scenecut=40 / intra_refresh=0 / rc_lookahead=60 / rc=crf / mbtree=1 / crf=18.3 / qcomp=0.60 / qpmin=3 / qpmax=69 / qpstep=4 / ip_ratio=1.40 / aq=1:1.00
Language : German
Default : Yes
Forced : No
Color primaries : BT.601 NTSC
Transfer characteristics : BT.709
Matrix coefficients : BT.601

Audio
ID : 2
Format : AC-3
Format/Info : Audio Coding 3
Mode extension : CM (complete main)
Format settings, Endianness : Big
Codec ID : A_AC3
Duration : 1h 48mn
Bit rate mode : Constant
Bit rate : 448 Kbps
Channel(s) : 6 channels
Channel positions : Front: L C R, Side: L R, LFE
Sampling rate : 48.0 KHz
Bit depth : 16 bits
Compression mode : Lossy
Stream size : 349 MiB (22%)
Language : German
Default : Yes
Forced : No